# xmcd
#
# Track frame offsets:
#	150
#	14857
#	40457
#	63937
#	91690
#	115425
#	132000
#	149325
#	176615
#	197517
#	223095
#	242355
#
# Disc length: 3480 seconds
#
# Revision: 3
# Processed by: cddbd v1.5.1PL2 Copyright (c) Steve Scherf et al.
# Submitted via: VUPlayer 2.42
#
DISCID=aa0d960c
DTITLE=Keiko Lee - Beautiful Love
DYEAR=1997
DGENRE=Jazz
TTITLE0=Beautiful Love
TTITLE1=A Time For Love
TTITLE2=My Romance
TTITLE3=The Summer Knows
TTITLE4=You've Changed
TTITLE5=The Shadow Of Your Smile
TTITLE6=Don't Let Me Be Lonely Tonight
TTITLE7=The End Of A Love Affair
TTITLE8=I'll Be Around
TTITLE9=Go Away Little Boy
TTITLE10=Love Is All There Is
TTITLE11=If It's Magic
EXTD=
EXTT0=
EXTT1=
EXTT2=
EXTT3=
EXTT4=
EXTT5=
EXTT6=
EXTT7=
EXTT8=
EXTT9=
EXTT10=
EXTT11=
PLAYORDER=
